<?xml version="1.0" encoding="utf-8"?>
<!-- Generator: Adobe Illustrator 24.0.0, SVG Export Plug-In . SVG Version: 6.00 Build 0)  -->
<svg version="1.1" id="Ebene_1" xmlns="http://www.w3.org/2000/svg" xmlns:xlink="http://www.w3.org/1999/xlink" x="0px" y="0px"
	 viewBox="0 0 48 48" style="enable-background:new 0 0 48 48;" xml:space="preserve">
<style type="text/css">
	.st0{fill:url(#SVGID_1_);}
	.st1{fill:url(#SVGID_2_);}
	.st2{fill:url(#SVGID_3_);}
	.st3{fill:url(#SVGID_4_);}
	.st4{fill:url(#SVGID_5_);}
	.st5{fill:url(#SVGID_6_);}
	.st6{fill:url(#SVGID_7_);}
	.st7{fill:url(#SVGID_8_);}
	.st8{fill:url(#SVGID_9_);}
	.st9{fill:url(#SVGID_10_);}
	.st10{fill:url(#SVGID_11_);}
	.st11{fill:url(#SVGID_12_);}
	.st12{fill:url(#SVGID_13_);}
	.st13{fill:url(#SVGID_14_);}
	.st14{fill:url(#SVGID_15_);}
	.st15{fill:url(#SVGID_16_);}
	.st16{fill:url(#SVGID_17_);}
	.st17{fill:url(#SVGID_18_);}
	.st18{fill:url(#SVGID_19_);}
</style>
<g>
	<g>
		<linearGradient id="SVGID_1_" gradientUnits="userSpaceOnUse" x1="38.4088" y1="25.3366" x2="43.3383" y2="25.3366">
			<stop  offset="0" style="stop-color:#FFFFFF"/>
			<stop  offset="1" style="stop-color:#D1EDFF"/>
			<stop  offset="1" style="stop-color:#000000"/>
		</linearGradient>
		<path class="st0" d="M43.15,14.88c0.06,6.95,0.12,13.89,0.18,20.93c-0.22-0.23-0.42-0.41-0.6-0.62c-0.53-0.59-1.04-1.19-1.58-1.78
			c-0.83-0.91-1.66-1.82-2.52-2.71c-0.29-0.3-0.26-0.59-0.16-0.94c1.16-3.82,2.32-7.64,3.47-11.45c0.33-1.09,0.65-2.18,0.98-3.26
			c0.02-0.06,0.07-0.12,0.11-0.17C43.08,14.87,43.12,14.88,43.15,14.88z M41.72,26.01c-0.04-0.27-0.07-0.62-0.14-0.95
			c-0.06-0.28-0.11-0.65-0.47-0.68c-0.36-0.03-0.46,0.33-0.56,0.6c-0.35,0.87-0.4,1.77-0.24,2.68c0.05,0.28,0.15,0.59,0.33,0.78
			c0.14,0.15,0.17,0.26,0.18,0.44c0.03,0.49,0.06,0.99,0.14,1.47c0.02,0.13,0.21,0.31,0.35,0.33c0.1,0.02,0.29-0.15,0.35-0.28
			c0.48-0.91,0.52-1.88,0.3-2.87c-0.02-0.1-0.06-0.23-0.14-0.28c-0.24-0.14-0.19-0.35-0.17-0.56C41.68,26.51,41.69,26.3,41.72,26.01
			z M41.75,22.68c-0.26,0.31-0.34,0.56-0.28,0.86c0.24,1.2,0.47,2.41,0.71,3.61c0.09,0.46,0.19,0.91,0.29,1.4
			c0.32-0.34,0.54-3.05,0.28-3.46c-0.09,0.4-0.16,0.76-0.24,1.11c-0.02,0-0.04,0-0.06,0C42.22,25.06,41.99,23.91,41.75,22.68z"/>
		<linearGradient id="SVGID_2_" gradientUnits="userSpaceOnUse" x1="40.5937" y1="26.4999" x2="41.3317" y2="26.4999">
			<stop  offset="0" style="stop-color:#FFFFFF"/>
			<stop  offset="1" style="stop-color:#D1EDFF"/>
			<stop  offset="1" style="stop-color:#000000"/>
		</linearGradient>
		<path class="st1" d="M41.02,25.27c0.46,0.46,0.4,1.96-0.09,2.46C40.44,27.3,40.5,25.71,41.02,25.27z"/>
		<g>
			<linearGradient id="SVGID_3_" gradientUnits="userSpaceOnUse" x1="13.9596" y1="20.7227" x2="36.7698" y2="20.7227">
				<stop  offset="0" style="stop-color:#FFFFFF"/>
				<stop  offset="1" style="stop-color:#D1EDFF"/>
				<stop  offset="1" style="stop-color:#000000"/>
			</linearGradient>
			<path class="st2" d="M25.03,11.26c3.95,6.23,7.85,12.37,11.74,18.51c-0.03,0.04-0.06,0.08-0.09,0.12c-0.26,0-0.51,0-0.77,0
				c-1.61,0.01-3.23,0.01-4.84,0.03c-1.46,0.02-2.92,0.06-4.37,0.08c-2.51,0.03-5.03,0.04-7.54,0.07c-1.58,0.02-3.15,0.08-4.73,0.12
				c-0.13,0-0.25-0.01-0.47-0.03C17.66,23.84,21.32,17.6,25.03,11.26z"/>
			<linearGradient id="SVGID_4_" gradientUnits="userSpaceOnUse" x1="13.7456" y1="38.8464" x2="37.019" y2="38.8464">
				<stop  offset="0" style="stop-color:#FFFFFF"/>
				<stop  offset="1" style="stop-color:#D1EDFF"/>
				<stop  offset="1" style="stop-color:#000000"/>
			</linearGradient>
			<path class="st3" d="M37.02,30.84c-3.83,5.33-7.64,10.64-11.51,16.02c-3.98-5.24-7.86-10.46-11.77-15.74
				c0.17-0.03,0.22-0.05,0.28-0.05c2.79-0.03,5.57-0.05,8.36-0.08c1.93-0.02,3.86-0.06,5.79-0.08c2.33-0.03,4.67-0.04,7-0.06
				C35.77,30.83,36.36,30.84,37.02,30.84z M22.01,34.51c-0.3,0.28-0.84-0.21-0.92,0.41c-0.02,0.19-0.02,0.53,0.07,0.57
				c0.25,0.1,0.54,0.07,0.92,0.1c0,1.52,0,3.06,0,4.57c0.68,0.14,0.8,0.1,1.1-0.37c0.86-1.33,1.71-2.68,2.59-4
				c0.26-0.4,0.25-0.79,0.17-1.22c-0.98,0-1.95,0-2.93,0c-0.03-0.57-0.05-1.12-0.08-1.67c-0.33,0-0.62,0-0.93,0
				C22.01,33.47,22.01,34.01,22.01,34.51z M27.5,38.29c-0.04-1.86-0.08-3.65-0.13-5.47c-0.25,0-0.45,0.01-0.65,0
				c-0.26-0.02-0.33,0.09-0.32,0.33c0.02,0.44,0.03,0.88,0.04,1.31c0.04,1.79,0.07,3.58,0.12,5.36c0,0.12,0.09,0.32,0.17,0.35
				c0.19,0.05,0.42,0.08,0.56-0.17c0.4-0.68,0.98-1.17,1.65-1.58c0.1-0.06,0.2-0.18,0.21-0.29c0.03-0.24,0.01-0.49,0.01-0.79
				C28.5,37.51,28.06,37.95,27.5,38.29z"/>
			<linearGradient id="SVGID_5_" gradientUnits="userSpaceOnUse" x1="5.2127" y1="20.2344" x2="24.2555" y2="20.2344">
				<stop  offset="0" style="stop-color:#FFFFFF"/>
				<stop  offset="1" style="stop-color:#D1EDFF"/>
				<stop  offset="1" style="stop-color:#000000"/>
			</linearGradient>
			<path class="st4" d="M13.13,29.73c-0.2-0.36-0.37-0.63-0.51-0.91c-0.69-1.44-1.37-2.89-2.07-4.33
				c-1.75-3.63-3.51-7.25-5.27-10.88c-0.12-0.25-0.1-0.4,0.19-0.45c0.26-0.05,0.51-0.11,0.77-0.14c1.83-0.22,3.67-0.42,5.5-0.66
				c2.5-0.32,5-0.68,7.5-1.01c1.54-0.21,3.07-0.4,4.61-0.6c0.13-0.02,0.27,0.03,0.4,0.05c-0.03,0.14-0.03,0.31-0.1,0.43
				c-0.45,0.74-0.94,1.45-1.38,2.19c-2.26,3.83-4.51,7.66-6.76,11.49c-0.83,1.42-1.66,2.84-2.5,4.26
				C13.41,29.33,13.3,29.48,13.13,29.73z M14.27,16.14c-0.14-1.13-0.93-1.8-1.94-1.68c-1.16,0.15-2,1.25-1.86,2.45
				c0.06,0.48,0.3,0.88,0.68,1.17c0.59,0.46,1.24,0.54,1.92,0.16c0.11,1.24,0.63,1.89,1.64,2.13c1,0.23,1.92-0.17,2.47-1.1
				c0.54-0.9,0.49-1.94-0.12-2.65C16.35,15.79,15.47,15.63,14.27,16.14z"/>
			<linearGradient id="SVGID_6_" gradientUnits="userSpaceOnUse" x1="25.7964" y1="20.0194" x2="42.8873" y2="20.0194">
				<stop  offset="0" style="stop-color:#FFFFFF"/>
				<stop  offset="1" style="stop-color:#D1EDFF"/>
				<stop  offset="1" style="stop-color:#000000"/>
			</linearGradient>
			<path class="st5" d="M37.61,29.33c-3.92-6.18-7.84-12.37-11.81-18.62c0.43,0,0.8-0.03,1.17,0c1.9,0.17,3.8,0.35,5.7,0.52
				c2.21,0.2,4.42,0.4,6.62,0.59c1.1,0.1,2.2,0.18,3.29,0.28c0.09,0.01,0.18,0.04,0.31,0.08c-1.73,5.73-3.46,11.44-5.18,17.14
				C37.67,29.33,37.64,29.33,37.61,29.33z M33.8,17.17c0.02-0.04,0.04-0.07,0.06-0.11c0.39,0.07,0.79,0.14,1.18,0.22
				c0.94,0.19,1.86,0.45,2.84,0.4c1.19-0.07,2.02-1.08,1.8-2.24c-0.18-0.94-0.74-1.62-1.59-2.01c-0.7-0.32-1.38-0.16-2.04,0.29
				c0.19,0.29,0.37,0.55,0.54,0.82c0.18-0.09,0.32-0.16,0.46-0.22c0.47-0.2,0.88-0.08,1.24,0.26c0.38,0.36,0.62,0.78,0.46,1.33
				c-0.14,0.48-0.51,0.75-0.97,0.77c-0.57,0.02-1.15-0.04-1.72-0.12c-0.72-0.11-1.44-0.3-2.16-0.4c-0.61-0.08-1.2-0.01-1.75,0.43
				c0.98,1.25,1.96,2.49,2.95,3.76c0.27-0.22,0.48-0.39,0.72-0.59C35.12,18.86,34.46,18.01,33.8,17.17z"/>
			<linearGradient id="SVGID_7_" gradientUnits="userSpaceOnUse" x1="5.0072" y1="38.7741" x2="23.7045" y2="38.7741">
				<stop  offset="0" style="stop-color:#FFFFFF"/>
				<stop  offset="1" style="stop-color:#D1EDFF"/>
				<stop  offset="1" style="stop-color:#000000"/>
			</linearGradient>
			<path class="st6" d="M23.64,45.99c-6.19-3.18-12.39-6.37-18.63-9.57c0.15-0.11,0.27-0.22,0.41-0.3c2.22-1.36,4.45-2.71,6.68-4.07
				c0.15-0.09,0.3-0.19,0.45-0.29c0.37-0.26,0.37-0.26,0.65,0.12c1.42,1.92,2.85,3.85,4.28,5.77c1.36,1.82,2.72,3.64,4.1,5.46
				c0.65,0.86,1.32,1.7,1.98,2.56c0.06,0.08,0.11,0.18,0.16,0.27C23.68,45.94,23.66,45.96,23.64,45.99z M15.4,37.33
				c-0.23-0.1-0.42-0.21-0.62-0.25c-0.51-0.11-1.02-0.25-1.53-0.26c-0.75-0.01-1.05,0.57-0.69,1.22c0.12,0.22,0.29,0.4,0.44,0.6
				c-0.47-0.15-0.93-0.34-1.34-0.6c-0.24-0.15-0.46-0.38-0.62-0.62c-0.19-0.28-0.07-0.5,0.28-0.55c0.16-0.02,0.32,0,0.48,0
				c-0.03-0.6-0.1-0.68-0.63-0.7c-0.87-0.04-1.27,0.52-0.85,1.27c0.22,0.39,0.56,0.74,0.93,1c1.1,0.76,2.37,1.11,3.67,1.35
				c0.36,0.07,0.73,0.09,1.09,0.05c0.63-0.06,0.93-0.55,0.72-1.15c-0.07-0.2-0.2-0.38-0.32-0.55c-0.18-0.25-0.37-0.49-0.56-0.73
				c-0.03,0.03-0.06,0.05-0.09,0.08c0.21,0.04,0.42,0.09,0.64,0.13c0.03-0.69-0.32-0.97-1.03-0.85
				C15.37,36.94,15.38,37.11,15.4,37.33z"/>
			<linearGradient id="SVGID_8_" gradientUnits="userSpaceOnUse" x1="4.6462" y1="24.905" x2="12.5028" y2="24.905">
				<stop  offset="0" style="stop-color:#FFFFFF"/>
				<stop  offset="1" style="stop-color:#D1EDFF"/>
				<stop  offset="1" style="stop-color:#000000"/>
			</linearGradient>
			<path class="st7" d="M4.7,14.3c0.26,0.54,0.51,1.08,0.77,1.62c1.33,2.74,2.67,5.47,4,8.21c0.97,1.99,1.93,3.99,2.89,5.98
				c0.24,0.5,0.21,0.54-0.24,0.82c-1.79,1.1-3.57,2.21-5.35,3.31c-0.69,0.43-1.39,0.84-2.11,1.26c0-7.07,0-14.13,0-21.19
				C4.66,14.31,4.68,14.31,4.7,14.3z M5.11,24.74c-0.05,0.1-0.09,0.14-0.1,0.2c-0.22,1.21-0.11,2.37,0.56,3.42
				c0.47,0.74,1.11,0.75,1.51-0.02c0.38-0.73,0.69-1.51,0.91-2.3c0.41-1.47,0.39-2.93-0.32-4.33c-0.18-0.36-0.4-0.75-0.88-0.72
				c-0.46,0.03-0.66,0.43-0.81,0.81c-0.43,1.06-0.42,2.16-0.14,3.25c0.18,0.68,0.39,1.36,1.27,1.56c-0.18,0.33-0.31,0.64-0.5,0.92
				c-0.27,0.39-0.59,0.36-0.82-0.06c-0.28-0.51-0.37-1.06-0.26-1.62C5.61,25.38,5.36,25.1,5.11,24.74z M8.63,31.61
				c0.06-0.13,0.12-0.24,0.17-0.36c0.17-0.49,0.13-0.59-0.34-0.83c-0.18-0.09-0.36-0.17-0.55-0.26c0.49-1.44,0.95-2.87,1.47-4.28
				c0.19-0.51-0.02-0.85-0.33-1.26c-0.07,0.18-0.12,0.29-0.16,0.41C8.26,26.86,7.64,28.7,7,30.53c-0.12,0.35-0.08,0.62,0.21,0.9
				C7.7,31.08,8.15,31.31,8.63,31.61z"/>
			<linearGradient id="SVGID_9_" gradientUnits="userSpaceOnUse" x1="6.2762" y1="6.6375" x2="24.5424" y2="6.6375">
				<stop  offset="0" style="stop-color:#FFFFFF"/>
				<stop  offset="1" style="stop-color:#D1EDFF"/>
				<stop  offset="1" style="stop-color:#000000"/>
			</linearGradient>
			<path class="st8" d="M6.28,12.1c5.7-3.65,11.39-7.3,17.18-11.01c0.07,0.59,0.11,1.05,0.17,1.52c0.28,2.09,0.56,4.18,0.85,6.26
				c0.12,0.84,0.15,0.85-0.67,0.97c-2.08,0.29-4.15,0.56-6.23,0.85c-1.89,0.26-3.78,0.52-5.67,0.77c-1.81,0.24-3.61,0.48-5.42,0.72
				c-0.06,0.01-0.12,0-0.18,0C6.3,12.15,6.29,12.13,6.28,12.1z M17.47,9.71c0.59,0.03,1.09-0.22,1.56-0.52
				c1.09-0.69,1.92-1.64,2.69-2.66c0.22-0.3,0.41-0.64,0.54-0.99c0.18-0.5-0.05-0.85-0.57-0.84c-0.4,0.01-0.85,0.05-1.2,0.23
				c-1.64,0.81-2.79,2.13-3.68,3.69C16.4,9.3,16.69,9.71,17.47,9.71z M16.16,6.35c0.45-0.14,0.9-0.28,1.44-0.46
				c-0.56,0.65-1.06,1.22-1.55,1.79c-0.49,0.57-0.97,1.13-1.47,1.72c0.49,0.18,0.78,0.04,1.06-0.3c0.93-1.11,1.88-2.19,2.82-3.29
				c0.34-0.4,0.68-0.8,1.03-1.2c-0.02-0.05-0.05-0.09-0.07-0.14c-0.21,0.06-0.43,0.09-0.63,0.18c-0.61,0.28-1.2,0.61-1.83,0.85
				C16.56,5.68,16.3,5.91,16.16,6.35z"/>
			<linearGradient id="SVGID_10_" gradientUnits="userSpaceOnUse" x1="24.4109" y1="6.2242" x2="41.9732" y2="6.2242">
				<stop  offset="0" style="stop-color:#FFFFFF"/>
				<stop  offset="1" style="stop-color:#D1EDFF"/>
				<stop  offset="1" style="stop-color:#000000"/>
			</linearGradient>
			<path class="st9" d="M24.42,1.32c5.86,3.28,11.66,6.52,17.56,9.81c-0.2,0-0.31,0.01-0.41,0c-2.5-0.22-5.01-0.44-7.51-0.67
				c-2.22-0.2-4.44-0.42-6.66-0.62c-0.52-0.05-1.04-0.06-1.56-0.08c-0.24-0.01-0.4-0.08-0.43-0.36c-0.09-0.77-0.21-1.55-0.31-2.32
				c-0.23-1.76-0.45-3.52-0.67-5.28C24.4,1.67,24.42,1.53,24.42,1.32z M30.71,8.71c0.15-0.36,0.27-0.67,0.4-0.97
				c0.67-1.56-0.55-3.32-2.25-3.25c-0.53,0.02-0.77,0.27-0.72,0.75c0.05,0.62,0.22,0.77,0.85,0.7c-0.01-0.07-0.03-0.14-0.04-0.2
				c-0.11-0.43,0.04-0.6,0.49-0.55c0.79,0.09,1.38,0.98,1.13,1.74c-0.09,0.27-0.21,0.53-0.33,0.79c-0.21,0.45-0.26,0.91-0.11,1.38
				c0.06,0.21,0.18,0.3,0.42,0.29c0.37-0.02,0.73,0.01,1.1,0.01c0.47,0,0.93,0,1.42,0c-0.15-0.61-0.24-0.69-0.74-0.69
				C31.8,8.71,31.3,8.71,30.71,8.71z M27.16,5.8c0.64,1.11,1.25,2.17,1.87,3.24c0.24,0.42,0.29,0.44,0.81,0.3
				c-0.02-0.05-0.03-0.11-0.06-0.16c-0.32-0.57-0.64-1.13-0.97-1.69c-0.53-0.92-1.06-1.85-1.61-2.76c-0.07-0.11-0.25-0.18-0.39-0.21
				c-0.03-0.01-0.13,0.2-0.18,0.31c-0.1,0.22-0.16,0.47-0.29,0.67c-0.17,0.26-0.16,0.61,0.1,0.79c0.27,0.18,0.36-0.12,0.51-0.24
				C27.03,5.99,27.07,5.91,27.16,5.8z"/>
			<linearGradient id="SVGID_11_" gradientUnits="userSpaceOnUse" x1="27.277" y1="38.5923" x2="42.8808" y2="38.5923">
				<stop  offset="0" style="stop-color:#FFFFFF"/>
				<stop  offset="1" style="stop-color:#D1EDFF"/>
				<stop  offset="1" style="stop-color:#000000"/>
			</linearGradient>
			<path class="st10" d="M34.76,35.51c0.17,0.87,0.31,1.63,0.47,2.46c-0.34,0.06-0.66,0.15-0.98,0.18c-0.34,0.04-0.41,0.2-0.32,0.5
				c0.04,0.12,0.07,0.25,0.12,0.4c0.44-0.08,0.87-0.16,1.3-0.23c0.21,0.25-0.04,0.89,0.66,0.68c0.56-0.17,0.09-0.54,0.26-0.84
				c0.33-0.07,0.73-0.16,1.13-0.24c0.67-0.13,1.35-0.25,2.02-0.39c0.16-0.03,0.41-0.14,0.42-0.24c0.03-0.26-0.03-0.51-0.35-0.65
				c-1.1-0.47-2.19-0.96-3.27-1.47c-0.44-0.2-0.86-0.42-1.38-0.24c0.99-1.39,1.99-2.78,3.02-4.23c1.69,1.84,3.35,3.64,5.03,5.47
				c-5.19,3.12-10.36,6.23-15.53,9.34c-0.02-0.02-0.05-0.05-0.07-0.07C29.75,42.49,32.22,39.04,34.76,35.51z"/>
			<linearGradient id="SVGID_12_" gradientUnits="userSpaceOnUse" x1="35.7064" y1="36.9943" x2="38.2099" y2="36.9943">
				<stop  offset="0" style="stop-color:#FFFFFF"/>
				<stop  offset="1" style="stop-color:#D1EDFF"/>
				<stop  offset="1" style="stop-color:#000000"/>
			</linearGradient>
			<path class="st11" d="M35.71,36.22c0.9,0.4,1.7,0.76,2.5,1.11c0,0.02-0.01,0.04-0.01,0.07c-0.67,0.13-1.34,0.26-2.01,0.37
				c-0.06,0.01-0.19-0.07-0.2-0.12C35.89,37.2,35.81,36.75,35.71,36.22z"/>
			<linearGradient id="SVGID_13_" gradientUnits="userSpaceOnUse" x1="23.0565" y1="36.9512" x2="24.9313" y2="36.9512">
				<stop  offset="0" style="stop-color:#FFFFFF"/>
				<stop  offset="1" style="stop-color:#D1EDFF"/>
				<stop  offset="1" style="stop-color:#000000"/>
			</linearGradient>
			<path class="st12" d="M23.06,38.34c0-0.92,0-1.83,0-2.8c0.6,0,1.21,0,1.87,0c-0.6,0.95-1.19,1.88-1.78,2.82
				C23.12,38.35,23.09,38.35,23.06,38.34z"/>
			<linearGradient id="SVGID_14_" gradientUnits="userSpaceOnUse" x1="13.8758" y1="18.1077" x2="16.6462" y2="18.1077">
				<stop  offset="0" style="stop-color:#FFFFFF"/>
				<stop  offset="1" style="stop-color:#D1EDFF"/>
				<stop  offset="1" style="stop-color:#000000"/>
			</linearGradient>
			<path class="st13" d="M15.35,19.46c-0.8,0-1.48-0.64-1.48-1.38c0.01-0.69,0.63-1.32,1.32-1.33c0.77,0,1.45,0.64,1.45,1.37
				C16.65,18.85,16.06,19.46,15.35,19.46z"/>
			<linearGradient id="SVGID_15_" gradientUnits="userSpaceOnUse" x1="11.3552" y1="16.4911" x2="13.4838" y2="16.4911">
				<stop  offset="0" style="stop-color:#FFFFFF"/>
				<stop  offset="1" style="stop-color:#D1EDFF"/>
				<stop  offset="1" style="stop-color:#000000"/>
			</linearGradient>
			<path class="st14" d="M13.48,16.47c0,0.56-0.49,1.07-1.02,1.08c-0.58,0-1.1-0.49-1.11-1.04c-0.01-0.58,0.48-1.08,1.05-1.08
				C12.99,15.43,13.49,15.91,13.48,16.47z"/>
			<linearGradient id="SVGID_16_" gradientUnits="userSpaceOnUse" x1="13.2863" y1="38.3268" x2="15.9666" y2="38.3268">
				<stop  offset="0" style="stop-color:#FFFFFF"/>
				<stop  offset="1" style="stop-color:#D1EDFF"/>
				<stop  offset="1" style="stop-color:#000000"/>
			</linearGradient>
			<path class="st15" d="M13.74,37.46c0.82,0.11,1.5,0.32,2.01,0.87c0.14,0.15,0.26,0.46,0.2,0.61c-0.07,0.15-0.39,0.27-0.59,0.26
				c-0.64-0.03-1.23-0.22-1.72-0.67c-0.08-0.07-0.18-0.14-0.21-0.24c-0.07-0.19-0.19-0.43-0.13-0.58
				C13.37,37.57,13.64,37.51,13.74,37.46z"/>
			<linearGradient id="SVGID_17_" gradientUnits="userSpaceOnUse" x1="6.1679" y1="23.887" x2="7.6916" y2="23.887">
				<stop  offset="0" style="stop-color:#FFFFFF"/>
				<stop  offset="1" style="stop-color:#D1EDFF"/>
				<stop  offset="1" style="stop-color:#000000"/>
			</linearGradient>
			<path class="st16" d="M6.17,23.85c0.12-0.45,0.22-0.91,0.38-1.35c0.06-0.17,0.28-0.41,0.39-0.39c0.17,0.02,0.36,0.22,0.45,0.39
				c0.28,0.56,0.37,1.18,0.28,1.8c-0.05,0.37-0.15,0.74-0.3,1.09c-0.16,0.38-0.46,0.38-0.69,0.04C6.34,24.95,6.25,24.42,6.17,23.85z
				"/>
			<linearGradient id="SVGID_18_" gradientUnits="userSpaceOnUse" x1="17.5236" y1="7.19" x2="21.4453" y2="7.19">
				<stop  offset="0" style="stop-color:#FFFFFF"/>
				<stop  offset="1" style="stop-color:#D1EDFF"/>
				<stop  offset="1" style="stop-color:#000000"/>
			</linearGradient>
			<path class="st17" d="M21.44,5.67c-0.04,0.08-0.08,0.26-0.18,0.38c-0.69,0.81-1.37,1.63-2.11,2.39c-0.29,0.3-0.74,0.45-1.13,0.63
				C17.89,9.12,17.64,9.09,17.57,9c-0.07-0.09-0.05-0.34,0.02-0.45c0.36-0.53,0.72-1.06,1.15-1.53c0.43-0.48,0.92-0.93,1.42-1.33
				c0.25-0.2,0.59-0.29,0.9-0.38C21.25,5.25,21.45,5.32,21.44,5.67z"/>
			<linearGradient id="SVGID_19_" gradientUnits="userSpaceOnUse" x1="41.1555" y1="28.8741" x2="41.7073" y2="28.8741">
				<stop  offset="0" style="stop-color:#FFFFFF"/>
				<stop  offset="1" style="stop-color:#D1EDFF"/>
				<stop  offset="1" style="stop-color:#000000"/>
			</linearGradient>
			<path class="st18" d="M41.49,27.92c0.33,0.51,0.28,1.47-0.09,1.9C41.04,29.45,41.08,28.45,41.49,27.92z"/>
		</g>
	</g>
	<path d="M23.64,0c0.02,0,0.05,0,0.07,0c0.25,0.11,0.51,0.19,0.74,0.32c3.42,1.9,6.83,3.81,10.24,5.72
		c2.93,1.64,5.85,3.28,8.78,4.92c0.33,0.18,0.51,0.42,0.51,0.82c0,1.35,0.02,2.7,0.04,4.05c0.03,1.81,0.1,3.63,0.12,5.44
		c0.03,3.86,0.04,7.71,0.07,11.57c0,0.37,0.05,0.75,0.08,1.12c0,0.93,0,1.85,0,2.78c-0.13,0.15-0.24,0.33-0.4,0.43
		c-0.79,0.48-1.59,0.94-2.38,1.41c-3.78,2.26-7.56,4.53-11.35,6.79c-1.46,0.87-2.93,1.75-4.39,2.62c-0.12,0-0.24,0-0.36,0
		c-0.25-0.17-0.5-0.36-0.77-0.5c-2.08-1.08-4.17-2.15-6.25-3.22c-4.7-2.42-9.4-4.83-14.09-7.26c-0.24-0.12-0.41-0.37-0.61-0.57
		c0-7.93,0-15.86,0-23.79c0.09-0.07,0.18-0.16,0.27-0.22c1.02-0.65,2.04-1.29,3.06-1.94c2.12-1.35,4.24-2.7,6.36-4.05
		c2.25-1.43,4.5-2.87,6.75-4.29C21.31,1.44,22.48,0.72,23.64,0z M25.03,11.26c-3.71,6.33-7.37,12.58-11.07,18.89
		c0.22,0.01,0.35,0.03,0.47,0.03c1.58-0.04,3.15-0.09,4.73-0.12c2.51-0.04,5.03-0.04,7.54-0.07c1.46-0.02,2.92-0.06,4.37-0.08
		c1.61-0.02,3.23-0.02,4.84-0.03c0.26,0,0.51,0,0.77,0c0.03-0.04,0.06-0.08,0.09-0.12C32.87,23.63,28.98,17.49,25.03,11.26z
		 M37.02,30.84c-0.66,0-1.25,0-1.84,0c-2.33,0.02-4.67,0.04-7,0.06c-1.93,0.02-3.86,0.06-5.79,0.08c-2.79,0.03-5.57,0.05-8.36,0.08
		c-0.05,0-0.11,0.02-0.28,0.05c3.91,5.28,7.78,10.5,11.77,15.74C29.37,41.48,33.19,36.17,37.02,30.84z M13.13,29.73
		c0.17-0.25,0.28-0.4,0.38-0.56c0.84-1.42,1.67-2.84,2.5-4.26c2.25-3.83,4.5-7.66,6.76-11.49c0.44-0.74,0.93-1.46,1.38-2.19
		c0.07-0.12,0.07-0.28,0.1-0.43c-0.13-0.02-0.27-0.07-0.4-0.05c-1.54,0.19-3.07,0.39-4.61,0.6c-2.5,0.34-5,0.69-7.5,1.01
		c-1.83,0.24-3.67,0.44-5.5,0.66c-0.26,0.03-0.51,0.09-0.77,0.14c-0.29,0.05-0.32,0.2-0.19,0.45c1.76,3.62,3.52,7.25,5.27,10.88
		c0.7,1.44,1.38,2.89,2.07,4.33C12.76,29.1,12.93,29.37,13.13,29.73z M37.61,29.33c0.03,0,0.07,0,0.1,0
		c1.72-5.71,3.45-11.41,5.18-17.14c-0.13-0.03-0.22-0.07-0.31-0.08c-1.1-0.09-2.2-0.18-3.29-0.28c-2.21-0.19-4.42-0.39-6.62-0.59
		c-1.9-0.17-3.8-0.36-5.7-0.52c-0.37-0.03-0.74,0-1.17,0C29.76,16.97,33.68,23.15,37.61,29.33z M23.64,45.99
		c0.02-0.02,0.04-0.05,0.07-0.07c-0.05-0.09-0.1-0.18-0.16-0.27c-0.66-0.85-1.33-1.7-1.98-2.56c-1.37-1.82-2.74-3.64-4.1-5.46
		c-1.43-1.92-2.85-3.84-4.28-5.77c-0.28-0.38-0.28-0.38-0.65-0.12c-0.15,0.1-0.29,0.2-0.45,0.29c-2.23,1.36-4.45,2.71-6.68,4.07
		c-0.14,0.08-0.26,0.19-0.41,0.3C11.25,39.62,17.44,42.8,23.64,45.99z M4.7,14.3c-0.02,0.01-0.04,0.01-0.05,0.02
		c0,7.06,0,14.12,0,21.19c0.72-0.43,1.42-0.84,2.11-1.26c1.79-1.1,3.57-2.21,5.35-3.31c0.46-0.28,0.48-0.32,0.24-0.82
		c-0.96-2-1.92-3.99-2.89-5.98c-1.33-2.74-2.66-5.48-4-8.21C5.21,15.38,4.96,14.84,4.7,14.3z M6.28,12.1
		c0.01,0.02,0.02,0.05,0.03,0.07c0.06,0,0.12,0.01,0.18,0c1.81-0.24,3.62-0.48,5.42-0.72c1.89-0.25,3.78-0.51,5.67-0.77
		c2.08-0.28,4.16-0.56,6.23-0.85c0.82-0.12,0.8-0.13,0.67-0.97c-0.3-2.09-0.57-4.17-0.85-6.26c-0.06-0.46-0.11-0.93-0.17-1.52
		C17.67,4.8,11.97,8.45,6.28,12.1z M24.42,1.32c0,0.21-0.01,0.35,0,0.48c0.22,1.76,0.44,3.52,0.67,5.28
		c0.1,0.77,0.22,1.55,0.31,2.32c0.03,0.28,0.19,0.35,0.43,0.36c0.52,0.02,1.04,0.03,1.56,0.08c2.22,0.2,4.44,0.41,6.66,0.62
		c2.5,0.23,5,0.45,7.51,0.67c0.11,0.01,0.21,0,0.41,0C36.08,7.84,30.28,4.59,24.42,1.32z M34.76,35.51
		c-2.54,3.54-5.01,6.98-7.48,10.42c0.02,0.02,0.05,0.05,0.07,0.07c5.17-3.11,10.34-6.22,15.53-9.34c-1.69-1.83-3.34-3.63-5.03-5.47
		c-1.04,1.45-2.03,2.84-3.02,4.23c0.52-0.18,0.94,0.04,1.38,0.24c1.09,0.5,2.17,1,3.27,1.47c0.32,0.14,0.38,0.39,0.35,0.65
		c-0.01,0.1-0.26,0.21-0.42,0.24c-0.67,0.14-1.35,0.26-2.02,0.39c-0.4,0.08-0.8,0.17-1.13,0.24c-0.17,0.31,0.3,0.68-0.26,0.84
		c-0.7,0.21-0.45-0.44-0.66-0.68c-0.43,0.08-0.86,0.15-1.3,0.23c-0.04-0.16-0.08-0.28-0.12-0.4c-0.09-0.3-0.02-0.46,0.32-0.5
		c0.32-0.03,0.64-0.12,0.98-0.18C35.07,37.14,34.93,36.38,34.76,35.51z M43.15,14.88c-0.04,0-0.08-0.01-0.11-0.01
		c-0.04,0.06-0.09,0.11-0.11,0.17c-0.33,1.09-0.65,2.18-0.98,3.26c-1.16,3.82-2.31,7.64-3.47,11.45c-0.11,0.35-0.13,0.64,0.16,0.94
		c0.85,0.89,1.69,1.8,2.52,2.71c0.53,0.59,1.05,1.19,1.58,1.78c0.18,0.2,0.38,0.39,0.6,0.62C43.28,28.77,43.22,21.82,43.15,14.88z
		 M35.71,36.22c0.1,0.53,0.18,0.98,0.28,1.43c0.01,0.06,0.14,0.13,0.2,0.12c0.67-0.12,1.34-0.25,2.01-0.37
		c0-0.02,0.01-0.04,0.01-0.07C37.41,36.97,36.6,36.62,35.71,36.22z"/>
	<path d="M30.39,24.08c-0.01,0.64-0.06,1.55-0.4,2.41c-0.5,1.23-1.66,1.77-2.9,1.35c-0.74-0.26-1.16-0.82-1.36-1.53
		c-0.48-1.69-0.51-3.4,0.02-5.08c0.4-1.27,1.52-1.84,2.78-1.51c0.67,0.18,1.1,0.62,1.38,1.24C30.26,21.75,30.39,22.52,30.39,24.08z
		 M29.33,24.29c-0.02,0-0.04,0-0.05-0.01c0-0.5,0.03-1-0.01-1.49c-0.04-0.44-0.1-0.9-0.25-1.32c-0.2-0.61-0.7-0.94-1.22-0.91
		c-0.51,0.03-0.94,0.4-1.09,1.02c-0.11,0.46-0.22,0.93-0.22,1.39c0.01,0.95,0.04,1.92,0.17,2.86c0.09,0.71,0.67,1.19,1.23,1.19
		c0.54,0,1.05-0.48,1.23-1.16c0.01-0.02,0.01-0.05,0.01-0.07C29.19,25.3,29.26,24.8,29.33,24.29z"/>
	<path d="M24.64,26.74c0,0.39,0,0.72,0,1.09c-1.68,0-3.34,0-5.04,0c-0.02-0.71,0.25-1.3,0.68-1.79c0.51-0.58,1.08-1.09,1.63-1.63
		c0.56-0.55,1.16-1.06,1.5-1.79c0.42-0.9,0.02-1.82-0.88-2.02c-0.82-0.18-1.54,0.32-1.65,1.19c-0.04,0.34-0.15,0.43-0.46,0.36
		c-0.19-0.04-0.4-0.06-0.64-0.09c0.04-0.81,0.27-1.5,0.94-1.98c1.47-1.06,3.61-0.29,3.9,1.39c0.15,0.89-0.11,1.69-0.71,2.33
		c-0.67,0.72-1.39,1.39-2.09,2.08c-0.25,0.25-0.48,0.51-0.72,0.76c0.02,0.03,0.03,0.06,0.05,0.09
		C22.31,26.74,23.46,26.74,24.64,26.74z"/>
	<path d="M22.01,34.51c0-0.5,0-1.04,0-1.61c0.31,0,0.6,0,0.93,0c0.03,0.55,0.05,1.11,0.08,1.67c0.98,0,1.94,0,2.93,0
		c0.08,0.43,0.1,0.82-0.17,1.22c-0.88,1.33-1.72,2.67-2.59,4c-0.31,0.47-0.42,0.51-1.1,0.37c0-1.51,0-3.04,0-4.57
		c-0.38-0.03-0.68-0.01-0.92-0.1c-0.09-0.03-0.09-0.37-0.07-0.57C21.16,34.3,21.7,34.79,22.01,34.51z M23.06,38.34
		c0.03,0.01,0.06,0.01,0.1,0.02c0.59-0.93,1.18-1.87,1.78-2.82c-0.67,0-1.28,0-1.87,0C23.06,36.51,23.06,37.42,23.06,38.34z"/>
	<path d="M27.5,38.29c0.57-0.33,1.01-0.78,1.68-0.93c0,0.3,0.02,0.55-0.01,0.79c-0.01,0.1-0.12,0.23-0.21,0.29
		c-0.67,0.41-1.25,0.89-1.65,1.58c-0.14,0.24-0.37,0.22-0.56,0.17c-0.08-0.02-0.17-0.22-0.17-0.35c-0.05-1.79-0.08-3.58-0.12-5.36
		c-0.01-0.44-0.02-0.88-0.04-1.31c-0.01-0.24,0.06-0.35,0.32-0.33c0.2,0.02,0.4,0,0.65,0C27.41,34.63,27.45,36.43,27.5,38.29z"/>
	<path d="M14.27,16.14c1.2-0.51,2.08-0.35,2.78,0.48c0.61,0.72,0.66,1.75,0.12,2.65c-0.55,0.93-1.47,1.34-2.47,1.1
		c-1.01-0.24-1.53-0.89-1.64-2.13c-0.68,0.38-1.33,0.3-1.92-0.16c-0.38-0.29-0.62-0.69-0.68-1.17c-0.14-1.2,0.7-2.31,1.86-2.45
		C13.34,14.34,14.13,15.01,14.27,16.14z M15.35,19.46c0.71,0,1.3-0.61,1.29-1.33c0-0.73-0.68-1.38-1.45-1.37
		c-0.69,0-1.31,0.63-1.32,1.33C13.87,18.82,14.55,19.46,15.35,19.46z M13.48,16.47c0-0.57-0.49-1.05-1.08-1.04
		c-0.57,0-1.05,0.5-1.05,1.08c0.01,0.55,0.53,1.04,1.11,1.04C12.99,17.55,13.48,17.03,13.48,16.47z"/>
	<path d="M33.8,17.17c0.66,0.85,1.32,1.69,2.01,2.58c-0.24,0.19-0.45,0.37-0.72,0.59c-0.99-1.27-1.97-2.51-2.95-3.76
		c0.55-0.44,1.15-0.51,1.75-0.43c0.72,0.1,1.44,0.29,2.16,0.4c0.57,0.08,1.15,0.14,1.72,0.12c0.46-0.02,0.83-0.28,0.97-0.77
		c0.16-0.55-0.08-0.97-0.46-1.33c-0.36-0.34-0.77-0.46-1.24-0.26c-0.14,0.06-0.28,0.13-0.46,0.22c-0.18-0.27-0.35-0.53-0.54-0.82
		c0.66-0.45,1.34-0.61,2.04-0.29c0.85,0.39,1.41,1.07,1.59,2.01c0.22,1.16-0.61,2.17-1.8,2.24c-0.98,0.05-1.9-0.21-2.84-0.4
		c-0.39-0.08-0.79-0.14-1.18-0.22C33.84,17.09,33.82,17.13,33.8,17.17z"/>
	<path d="M15.4,37.33c-0.02-0.22-0.03-0.38-0.04-0.55c0.71-0.11,1.06,0.16,1.03,0.85c-0.22-0.04-0.43-0.09-0.64-0.13
		c0.03-0.03,0.06-0.05,0.09-0.08c0.19,0.24,0.38,0.48,0.56,0.73c0.12,0.17,0.25,0.35,0.32,0.55c0.21,0.6-0.08,1.08-0.72,1.15
		c-0.36,0.04-0.74,0.01-1.09-0.05c-1.3-0.24-2.57-0.59-3.67-1.35c-0.37-0.25-0.71-0.61-0.93-1c-0.43-0.76-0.03-1.32,0.85-1.27
		c0.52,0.02,0.59,0.1,0.63,0.7c-0.16,0-0.33-0.02-0.48,0c-0.34,0.05-0.47,0.27-0.28,0.55c0.16,0.24,0.38,0.47,0.62,0.62
		c0.42,0.26,0.87,0.45,1.34,0.6c-0.15-0.2-0.32-0.39-0.44-0.6c-0.36-0.66-0.05-1.23,0.69-1.22c0.51,0.01,1.02,0.15,1.53,0.26
		C14.98,37.12,15.17,37.23,15.4,37.33z M13.74,37.46c-0.11,0.06-0.37,0.11-0.44,0.26c-0.06,0.15,0.06,0.39,0.13,0.58
		c0.03,0.09,0.13,0.16,0.21,0.24c0.49,0.44,1.08,0.64,1.72,0.67c0.2,0.01,0.52-0.11,0.59-0.26c0.07-0.15-0.06-0.46-0.2-0.61
		C15.24,37.78,14.57,37.57,13.74,37.46z"/>
	<path d="M5.11,24.74c0.25,0.36,0.5,0.64,0.41,1.11c-0.11,0.56-0.01,1.11,0.26,1.62c0.23,0.42,0.55,0.46,0.82,0.06
		c0.19-0.28,0.33-0.59,0.5-0.92c-0.88-0.2-1.1-0.88-1.27-1.56c-0.28-1.09-0.29-2.18,0.14-3.25c0.15-0.38,0.35-0.77,0.81-0.81
		c0.48-0.04,0.7,0.36,0.88,0.72c0.71,1.39,0.74,2.86,0.32,4.33c-0.22,0.79-0.53,1.57-0.91,2.3c-0.4,0.77-1.04,0.75-1.51,0.02
		c-0.67-1.06-0.78-2.21-0.56-3.42C5.01,24.88,5.05,24.84,5.11,24.74z M6.17,23.85c0.08,0.57,0.18,1.1,0.5,1.57
		c0.24,0.34,0.53,0.34,0.69-0.04c0.15-0.34,0.24-0.72,0.3-1.09c0.09-0.62,0.01-1.23-0.28-1.8c-0.09-0.17-0.28-0.37-0.45-0.39
		c-0.11-0.02-0.33,0.22-0.39,0.39C6.39,22.93,6.29,23.4,6.17,23.85z"/>
	<path d="M8.63,31.61c-0.47-0.29-0.93-0.53-1.42-0.18c-0.29-0.28-0.33-0.55-0.21-0.9c0.64-1.83,1.26-3.67,1.89-5.5
		c0.04-0.12,0.09-0.23,0.16-0.41c0.31,0.42,0.52,0.75,0.33,1.26c-0.52,1.41-0.98,2.84-1.47,4.28c0.19,0.09,0.37,0.17,0.55,0.26
		c0.47,0.24,0.51,0.34,0.34,0.83C8.75,31.37,8.69,31.48,8.63,31.61z"/>
	<path d="M17.47,9.71c-0.78,0-1.07-0.41-0.67-1.09c0.89-1.55,2.05-2.88,3.68-3.69c0.35-0.17,0.8-0.22,1.2-0.23
		c0.53-0.01,0.76,0.34,0.57,0.84c-0.13,0.35-0.31,0.69-0.54,0.99c-0.76,1.02-1.6,1.97-2.69,2.66C18.55,9.49,18.05,9.73,17.47,9.71z
		 M21.44,5.67c0.01-0.35-0.19-0.42-0.38-0.37c-0.31,0.09-0.66,0.18-0.9,0.38c-0.51,0.4-0.99,0.85-1.42,1.33
		c-0.43,0.47-0.79,1-1.15,1.53C17.52,8.66,17.5,8.91,17.57,9c0.07,0.09,0.32,0.12,0.45,0.07c0.4-0.18,0.84-0.33,1.13-0.63
		c0.74-0.76,1.42-1.58,2.11-2.39C21.37,5.93,21.41,5.75,21.44,5.67z"/>
	<path d="M16.16,6.35c0.15-0.44,0.41-0.68,0.8-0.83c0.63-0.24,1.21-0.58,1.83-0.85c0.2-0.09,0.42-0.12,0.63-0.18
		c0.02,0.05,0.05,0.09,0.07,0.14c-0.34,0.4-0.68,0.8-1.03,1.2c-0.94,1.09-1.9,2.18-2.82,3.29c-0.28,0.33-0.57,0.48-1.06,0.3
		c0.5-0.59,0.98-1.15,1.47-1.72c0.49-0.57,0.99-1.14,1.55-1.79C17.05,6.07,16.6,6.21,16.16,6.35z"/>
	<path d="M30.71,8.71c0.58,0,1.09,0,1.6,0c0.51,0,0.59,0.08,0.74,0.69c-0.48,0-0.95,0-1.42,0c-0.37,0-0.74-0.03-1.1-0.01
		c-0.24,0.01-0.35-0.09-0.42-0.29c-0.15-0.48-0.1-0.93,0.11-1.38c0.12-0.26,0.24-0.52,0.33-0.79c0.24-0.75-0.35-1.65-1.13-1.74
		c-0.45-0.05-0.6,0.12-0.49,0.55c0.02,0.07,0.03,0.13,0.04,0.2c-0.63,0.06-0.8-0.08-0.85-0.7c-0.04-0.48,0.2-0.73,0.72-0.75
		c1.7-0.07,2.93,1.69,2.25,3.25C30.98,8.04,30.86,8.35,30.71,8.71z"/>
	<path d="M27.16,5.8c-0.08,0.1-0.13,0.19-0.2,0.24c-0.15,0.12-0.24,0.42-0.51,0.24c-0.26-0.18-0.27-0.53-0.1-0.79
		c0.13-0.2,0.19-0.45,0.29-0.67c0.05-0.11,0.14-0.32,0.18-0.31c0.14,0.03,0.32,0.1,0.39,0.21c0.55,0.91,1.08,1.84,1.61,2.76
		c0.33,0.56,0.65,1.13,0.97,1.69c0.03,0.05,0.04,0.11,0.06,0.16c-0.52,0.14-0.57,0.12-0.81-0.3C28.41,7.98,27.8,6.91,27.16,5.8z"/>
	<path d="M41.72,26.01c-0.03,0.28-0.04,0.5-0.06,0.71c-0.02,0.21-0.07,0.42,0.17,0.56c0.08,0.04,0.12,0.18,0.14,0.28
		c0.22,0.99,0.18,1.95-0.3,2.87c-0.07,0.13-0.25,0.3-0.35,0.28c-0.14-0.02-0.33-0.2-0.35-0.33c-0.08-0.48-0.11-0.98-0.14-1.47
		c-0.01-0.18-0.05-0.29-0.18-0.44c-0.18-0.2-0.29-0.51-0.33-0.78c-0.16-0.91-0.1-1.82,0.24-2.68c0.11-0.27,0.21-0.63,0.56-0.6
		c0.36,0.03,0.41,0.39,0.47,0.68C41.65,25.4,41.68,25.74,41.72,26.01z M41.02,25.27c-0.52,0.44-0.58,2.03-0.09,2.46
		C41.42,27.23,41.48,25.73,41.02,25.27z M41.49,27.92c-0.41,0.53-0.45,1.53-0.09,1.9C41.77,29.4,41.82,28.43,41.49,27.92z"/>
	<path d="M41.75,22.68c0.25,1.23,0.47,2.38,0.7,3.53c0.02,0,0.04,0,0.06,0c0.08-0.35,0.15-0.71,0.24-1.11
		c0.26,0.4,0.04,3.12-0.28,3.46c-0.1-0.49-0.2-0.94-0.29-1.4c-0.24-1.2-0.47-2.41-0.71-3.61C41.41,23.25,41.48,22.99,41.75,22.68z"
		/>
</g>
</svg>
